<svg width="16" height="16" viewBox="0 0 16 16" fill="none" xmlns="http://www.w3.org/2000/svg">
<path d="M5.94749 11.535C5.94749 11.585 5.88999 11.625 5.81749 11.625C5.73499 11.6325 5.67749 11.5925 5.67749 11.535C5.67749 11.485 5.73499 11.445 5.80749 11.445C5.88249 11.4375 5.94749 11.4775 5.94749 11.535ZM5.16999 11.4225C5.15249 11.4725 5.20249 11.53 5.27749 11.545C5.34249 11.57 5.41749 11.545 5.43249 11.495C5.44749 11.445 5.39999 11.3875 5.32499 11.365C5.25999 11.3475 5.18749 11.3725 5.16999 11.4225ZM6.27499 11.38C6.20249 11.3975 6.15249 11.445 6.15999 11.5025C6.16749 11.5525 6.23249 11.585 6.30749 11.5675C6.37999 11.55 6.42999 11.5025 6.42249 11.4525C6.41499 11.405 6.34749 11.3725 6.27499 11.38ZM7.91999 1.8C4.45249 1.8 1.79999 4.4325 1.79999 7.9C1.79999 10.6725 3.54499 13.045 6.03749 13.88C6.35749 13.9375 6.46999 13.74 6.46999 13.5775C6.46999 13.4225 6.46249 12.5675 6.46249 12.0425C6.46249 12.0425 4.71249 12.4175 4.34499 11.2975C4.34499 11.2975 4.05999 10.57 3.64999 10.3825C3.64999 10.3825 3.07749 9.99 3.68999 9.9975C3.68999 9.9975 4.31249 10.0475 4.65499 10.6425C5.20249 11.6075 6.11999 11.33 6.47749 11.165C6.53499 10.765 6.69749 10.4875 6.87749 10.3225C5.47999 10.1675 4.06999 9.965 4.06999 7.56C4.06999 6.8725 4.25999 6.5275 4.65999 6.0875C4.59499 5.925 4.38249 5.255 4.72499 4.39C5.24749 4.2275 6.44999 5.065 6.44999 5.065C6.94999 4.925 7.48749 4.8525 8.01999 4.8525C8.55249 4.8525 9.08999 4.925 9.58999 5.065C9.58999 5.065 10.7925 4.225 11.315 4.39C11.6575 5.2575 11.445 5.925 11.38 6.0875C11.78 6.53 12.025 6.875 12.025 7.56C12.025 9.9725 10.5525 10.165 9.15499 10.3225C9.38499 10.52 9.57999 10.895 9.57999 11.4825C9.57999 12.325 9.57249 13.3675 9.57249 13.5725C9.57249 13.735 9.68749 13.9325 10.005 13.875C12.505 13.045 14.2 10.6725 14.2 7.9C14.2 4.4325 11.3875 1.8 7.91999 1.8ZM4.22999 10.4225C4.19749 10.4475 4.20499 10.505 4.24749 10.5525C4.28749 10.5925 4.34499 10.61 4.37749 10.5775C4.40999 10.5525 4.40249 10.495 4.35999 10.4475C4.31999 10.4075 4.26249 10.39 4.22999 10.4225ZM3.95999 10.22C3.94249 10.2525 3.96749 10.2925 4.01749 10.3175C4.05749 10.3425 4.10749 10.335 4.12499 10.3C4.14249 10.2675 4.11749 10.2275 4.06749 10.2025C4.01749 10.1875 3.97749 10.195 3.95999 10.22ZM4.76999 11.11C4.72999 11.1425 4.74499 11.2175 4.80249 11.265C4.85999 11.3225 4.93249 11.33 4.96499 11.29C4.99749 11.2575 4.98249 11.1825 4.93249 11.135C4.87749 11.0775 4.80249 11.07 4.76999 11.11ZM4.48499 10.7425C4.44499 10.7675 4.44499 10.8325 4.48499 10.89C4.52499 10.9475 4.59249 10.9725 4.62499 10.9475C4.66499 10.915 4.66499 10.85 4.62499 10.7925C4.58999 10.735 4.52499 10.71 4.48499 10.7425Z" fill="#9CA3AF"/>
</svg>
