<svg width="16" height="16" viewBox="0 0 16 16" fill="none" xmlns="http://www.w3.org/2000/svg">
<path d="M13.085 5.3925C13.0925 5.505 13.0925 5.62 13.0925 5.7325C13.0925 9.2 10.4525 13.1975 5.62748 13.1975C4.13998 13.1975 2.75998 12.7675 1.59998 12.02C1.80998 12.045 2.01498 12.0525 2.23248 12.0525C3.45998 12.0525 4.58748 11.6375 5.48998 10.9325C4.33748 10.9075 3.36998 10.1525 3.03748 9.1125C3.19998 9.1375 3.36248 9.1525 3.53248 9.1525C3.76748 9.1525 4.00248 9.12 4.22248 9.0625C3.01998 8.82 2.11998 7.7625 2.11998 6.4875V6.455C2.46998 6.65 2.87498 6.7725 3.30498 6.7875C2.59748 6.3175 2.13498 5.5125 2.13498 4.6025C2.13498 4.115 2.26498 3.6675 2.49248 3.2775C3.78498 4.87 5.72498 5.91 7.90248 6.0225C7.86248 5.8275 7.83748 5.625 7.83748 5.4225C7.83748 3.9775 9.00748 2.8 10.46 2.8C11.215 2.8 11.8975 3.1175 12.3775 3.6275C12.97 3.515 13.54 3.295 14.0425 2.995C13.8475 3.605 13.4325 4.115 12.89 4.44C13.4175 4.3825 13.93 4.2375 14.4 4.035C14.0425 4.555 13.595 5.0175 13.085 5.3925Z" fill="#9CA3AF"/>
</svg>
