<svg width="16" height="16" viewBox="0 0 16 16" fill="none" xmlns="http://www.w3.org/2000/svg">
<path d="M8.00751 5.125C6.42001 5.12 5.13001 6.40501 5.12501 7.99251C5.12001 9.58001 6.40501 10.87 7.99251 10.875C9.58001 10.88 10.87 9.595 10.875 8.0075C10.88 6.42 9.59501 5.13 8.00751 5.125ZM7.99251 6.135C9.02251 6.13 9.86001 6.96251 9.86501 7.99251C9.87001 9.02251 9.03751 9.86 8.00751 9.865C6.97751 9.87 6.14001 9.0375 6.13501 8.0075C6.13001 6.9775 6.96251 6.14 7.99251 6.135ZM10.3275 5.0075C10.3275 4.6375 10.6275 4.3375 10.9975 4.3375C11.3675 4.3375 11.6675 4.6375 11.6675 5.0075C11.6675 5.3775 11.3675 5.67751 10.9975 5.67751C10.6275 5.67751 10.3275 5.3775 10.3275 5.0075ZM13.57 5.68751C13.5275 4.79 13.3225 3.99501 12.665 3.34001C12.01 2.68501 11.215 2.48 10.3175 2.435C9.39251 2.3825 6.62001 2.3825 5.69501 2.435C4.80001 2.4775 4.00501 2.6825 3.34751 3.3375C2.69001 3.9925 2.48751 4.7875 2.44251 5.685C2.39001 6.61 2.39001 9.3825 2.44251 10.3075C2.48501 11.205 2.69001 12 3.34751 12.655C4.00501 13.31 4.79751 13.515 5.69501 13.56C6.62001 13.6125 9.39251 13.6125 10.3175 13.56C11.215 13.5175 12.01 13.3125 12.665 12.655C13.32 12 13.525 11.205 13.57 10.3075C13.6225 9.3825 13.6225 6.61251 13.57 5.68751ZM12.375 11.3C12.18 11.79 11.8025 12.1675 11.31 12.365C10.5725 12.6575 8.82251 12.59 8.00751 12.59C7.19251 12.59 5.44001 12.655 4.70501 12.365C4.21501 12.17 3.83751 11.7925 3.64001 11.3C3.34751 10.5625 3.41501 8.8125 3.41501 7.9975C3.41501 7.1825 3.35001 5.43 3.64001 4.695C3.83501 4.205 4.21251 3.8275 4.70501 3.63C5.44251 3.3375 7.19251 3.405 8.00751 3.405C8.82251 3.405 10.575 3.34 11.31 3.63C11.8 3.825 12.1775 4.2025 12.375 4.695C12.6675 5.4325 12.6 7.1825 12.6 7.9975C12.6 8.8125 12.6675 10.565 12.375 11.3Z" fill="#9CA3AF"/>
</svg>
