<svg width="24" height="24" viewBox="0 0 24 24" fill="none" xmlns="http://www.w3.org/2000/svg">
<path d="M16.285 9.12L7.38502 18.02C7.20169 18.2033 6.96836 18.295 6.68502 18.295C6.40169 18.295 6.16836 18.2033 5.98502 18.02C5.80169 17.8367 5.71002 17.6033 5.71002 17.32C5.71002 17.0367 5.80169 16.8033 5.98502 16.62L14.885 7.72H7.28502C7.00169 7.72 6.76419 7.62417 6.57252 7.4325C6.38086 7.24083 6.28502 7.00333 6.28502 6.72C6.28502 6.43667 6.38086 6.19917 6.57252 6.0075C6.76419 5.81583 7.00169 5.72 7.28502 5.72H17.285C17.5684 5.72 17.8059 5.81583 17.9975 6.0075C18.1892 6.19917 18.285 6.43667 18.285 6.72V16.72C18.285 17.0033 18.1892 17.2408 17.9975 17.4325C17.8059 17.6242 17.5684 17.72 17.285 17.72C17.0017 17.72 16.7642 17.6242 16.5725 17.4325C16.3809 17.2408 16.285 17.0033 16.285 16.72V9.12Z" fill="#1F2937"/>
</svg>
